<?xml version="1.0" encoding="utf-8"?>
<!-- Generator: Adobe Illustrator 19.1.0, SVG Export Plug-In . SVG Version: 6.00 Build 0)  -->
<svg version="1.1" id="Layer_1" xmlns="http://www.w3.org/2000/svg" xmlns:xlink="http://www.w3.org/1999/xlink" x="0px" y="0px"
	 viewBox="-58.9 285.7 163.2 25" style="enable-background:new -58.9 285.7 163.2 25;" xml:space="preserve">
<style type="text/css">
	.st0{display:none;}
	.st1{display:inline;fill:#0A7185;}
	.st2{display:inline;}
	.st3{fill:#0A7185;}
	.st4{fill:#179CB6;}
	.st5{fill:#128CAB;}
	.st6{fill:#00C3DC;}
</style>
<g class="st0">
	<path class="st1" d="M-133.4,330.8h17.6l-28.9-65.1h-18.8l-26.5,65.1h17.5l4.9-13h28.8L-133.4,330.8z M-163.3,306.5l9.4-24.8
		l10.4,24.8H-163.3z"/>
	<path class="st1" d="M-63.7,314.8c-1.4-2.9-3.4-10.6-10.3-14.1c0,0,11-3.6,11-15.9c0-11-8.6-19-22.5-19c-11-0.1-27.5-0.1-27.5-0.1
		v65.1h16.1v-26.7c0,0,9.5-1.8,13,5.4l9.8,21.2h17.8C-56.3,330.8-62.4,317.6-63.7,314.8z M-86.4,292.8L-86.4,292.8H-97v-15h10.6l0,0
		c3.9,0.2,7.1,3.5,7.1,7.5S-82.4,292.5-86.4,292.8z"/>
	<polygon class="st1" points="-51.4,330.8 -35.4,330.8 -35.4,290.3 -17.9,310.6 -15.5,310.6 1.7,290.3 1.7,330.8 18,330.8 18,265.7 
		4.1,265.7 -16.7,290.2 -37.3,265.7 -51.4,265.7 	"/>
	<g class="st2">
		<path class="st3" d="M28.9,265.8c1.2,0,2.2,0.3,3.2,0.9s1.8,1.4,2.4,2.4c0.6,1,0.9,2.1,0.9,3.2c0,1.2-0.3,2.2-0.9,3.2
			c-0.6,1-1.4,1.8-2.4,2.4c-1,0.6-2.1,0.9-3.2,0.9c-1.2,0-2.2-0.3-3.2-0.9c-1-0.6-1.8-1.4-2.4-2.4c-0.6-1-0.9-2.1-0.9-3.2
			s0.3-2.2,0.9-3.2c0.6-1,1.4-1.8,2.4-2.4S27.7,265.8,28.9,265.8z M28.9,266.9c-1.5,0-2.8,0.5-3.8,1.6c-1,1.1-1.6,2.3-1.6,3.8
			s0.5,2.8,1.6,3.8s2.3,1.6,3.8,1.6s2.8-0.5,3.8-1.6c1.1-1.1,1.6-2.3,1.6-3.8s-0.5-2.8-1.6-3.8S30.4,266.9,28.9,266.9z M27.4,275.7
			h-1.1v-6.9h2.4c0.9,0,1.5,0.1,1.8,0.2c0.4,0.1,0.6,0.4,0.8,0.7s0.3,0.6,0.3,1c0,0.5-0.2,1-0.6,1.3c-0.4,0.4-0.8,0.6-1.4,0.6
			c0.3,0.1,0.5,0.3,0.7,0.5c0.2,0.2,0.5,0.7,0.9,1.2l0.8,1.4h-1.4l-0.6-1.1c-0.4-0.8-0.8-1.3-1-1.5c-0.3-0.2-0.6-0.3-1-0.3h-0.7v2.9
			H27.4z M27.4,269.7v2.1h1.4c0.6,0,1-0.1,1.3-0.3c0.3-0.2,0.4-0.4,0.4-0.8s-0.1-0.7-0.4-0.8c-0.3-0.2-0.7-0.2-1.4-0.2
			C28.7,269.7,27.4,269.7,27.4,269.7z"/>
	</g>
	<g class="st2">
		<g>
			<path class="st4" d="M76.8,299.8v30.8h-8.4V307c0-4.7-0.6-8-1.9-9.8c-1.3-1.9-3.5-2.8-6.6-2.8c-1.8,0-3.4,0.4-4.8,1.2
				c-1.5,0.8-3.1,2.2-5,4.2v30.8h-8.4v-42.5h8.4v5.6c4.3-4.3,8.5-6.4,12.5-6.4c5.4,0,9.5,2.6,12.5,7.7c4.5-5.2,9.2-7.7,14.1-7.7
				c4.1,0,7.5,1.5,10.2,4.5s4,7.6,4,13.8v25H95v-25.2c0-3.5-0.7-6.2-2.2-8.1s-3.5-2.8-6.2-2.8C83.1,294.5,79.8,296.3,76.8,299.8z"/>
			<path class="st4" d="M114.5,266.1h8.4v25c3.6-2.6,7.5-4,11.6-4c5.4,0,9.8,2,13.2,6.1c3.4,4.1,5.1,9.3,5.1,15.6
				c0,6.8-2,12.3-6.1,16.3s-9.5,6.1-16.4,6.1c-2.7,0-5.6-0.3-8.6-0.9s-5.4-1.3-7.2-2.2V266.1z M122.9,299.2v23
				c2.9,0.9,5.8,1.3,8.8,1.3c3.7,0,6.8-1.3,9.1-4c2.4-2.6,3.5-6,3.5-10.2c0-4.2-1.1-7.6-3.3-10.3c-2.2-2.6-5.1-4-8.6-4
				C129.3,295.1,126.1,296.4,122.9,299.2z"/>
			<path class="st4" d="M198.3,310.1h-29.8c0.2,4.1,1.6,7.3,4.1,9.7s5.7,3.6,9.7,3.6c5.5,0,10.6-1.7,15.3-5.2v8.2
				c-2.6,1.7-5.1,3-7.7,3.7c-2.5,0.7-5.5,1.1-8.9,1.1c-4.7,0-8.5-1-11.3-2.9c-2.9-1.9-5.2-4.5-6.9-7.8c-1.7-3.3-2.6-7.1-2.6-11.4
				c0-6.5,1.8-11.7,5.5-15.8c3.7-4,8.4-6.1,14.3-6.1c5.6,0,10.1,2,13.5,5.9s5,9.2,5,15.8v1.2H198.3z M168.6,305.1H190
				c-0.2-3.4-1.2-5.9-3-7.7c-1.8-1.8-4.2-2.7-7.2-2.7s-5.5,0.9-7.4,2.7C170.5,299.2,169.2,301.7,168.6,305.1z"/>
			<path class="st4" d="M235.7,266.1h8.4v64.4h-17.9c-6.3,0-11.3-2-15-6s-5.6-9.3-5.6-16c0-6.2,2-11.4,5.9-15.4s8.9-6,15-6
				c2.8,0,5.9,0.6,9.2,1.8V266.1z M235.7,323.4v-26.9c-2.6-1.3-5.3-2-7.9-2c-4.2,0-7.5,1.4-10,4.1c-2.5,2.7-3.7,6.4-3.7,11.1
				c0,4.4,1.1,7.7,3.2,10.1c1.3,1.4,2.7,2.4,4.1,2.9s4,0.7,7.8,0.7H235.7z"/>
		</g>
		<g>
			<path class="st4" d="M257.2,274.8h-1.5v-7.4H253v-1.3h7.1v1.3h-2.8v7.4H257.2z M262.4,274.8H261v-8.7h2.1l2.2,6.9l2.1-6.9h2.1
				v8.7h-1.3v-7.3l-2.2,7.3h-1.3l-2.3-7.4L262.4,274.8L262.4,274.8z"/>
		</g>
	</g>
</g>
<g>
	<g>
		<path class="st5" d="M-30.8,310.5h-6.6l-2-4.9h-11.1l-1.9,4.9h-6.5l10-24.7h7.2L-30.8,310.5z M-45.3,291.7l-3.6,9.6h7.6
			L-45.3,291.7z"/>
		<path class="st5" d="M-18.7,285.7c5.1,0,8.1,3.4,8.1,7.1c0,2.7-1.4,4.7-4.2,6.1c2.5,1.3,3.3,4.3,6.8,11.6h-6.8
			c-2.7-5.3-3.6-10-7-10h-1.8v10h-6.2v-24.7H-18.7z M-23.6,295.9h3.3c1.7,0,3.4-0.7,3.4-2.8c0-1.8-1.2-2.8-3.5-2.8h-3.1V295.9z"/>
		<path class="st5" d="M15.2,285.7h5.4v24.7h-6.2V295l-6.7,7.8H6.8L0.1,295v15.4h-6.2v-24.7h5.4l8,9.2L15.2,285.7z"/>
		<path class="st6" d="M39.9,298.6v11.8h-3.2v-9.1c0-1.8-0.2-3.1-0.7-3.8c-0.5-0.7-1.3-1.1-2.5-1.1c-0.7,0-1.3,0.2-1.9,0.5
			c-0.6,0.3-1.2,0.8-1.9,1.6v11.8h-3.2v-16.3h3.2v2.1c1.6-1.6,3.3-2.5,4.8-2.5c2.1,0,3.7,1,4.8,2.9c1.7-2,3.5-3,5.4-3
			c1.6,0,2.9,0.6,3.9,1.7c1,1.2,1.5,2.9,1.5,5.3v9.6h-3.2v-9.6c0-1.4-0.3-2.4-0.8-3.1c-0.6-0.7-1.4-1.1-2.4-1.1
			C42.3,296.6,41.1,297.3,39.9,298.6z"/>
		<path class="st6" d="M54.4,285.7h3.2v9.6c1.4-1,2.9-1.5,4.5-1.5c2.1,0,3.8,0.8,5.1,2.3s2,3.6,2,6c0,2.6-0.8,4.7-2.4,6.3
			c-1.6,1.6-3.7,2.3-6.3,2.3c-1.1,0-2.2-0.1-3.3-0.3c-1.2-0.2-2.1-0.5-2.8-0.8V285.7z M57.7,298.4v8.8c1.1,0.3,2.2,0.5,3.4,0.5
			c1.4,0,2.6-0.5,3.5-1.5c0.9-1,1.4-2.3,1.4-3.9c0-1.6-0.4-2.9-1.3-3.9c-0.8-1-1.9-1.5-3.3-1.5C60.1,296.8,58.9,297.4,57.7,298.4z"
			/>
		<path class="st6" d="M86.6,302.6H75.2c0.1,1.6,0.6,2.8,1.6,3.7c1,0.9,2.2,1.4,3.7,1.4c2.1,0,4.1-0.7,5.9-2v3.1c-1,0.7-2,1.1-3,1.4
			c-1,0.3-2.1,0.4-3.4,0.4c-1.8,0-3.3-0.4-4.4-1.1c-1.1-0.7-2-1.7-2.7-3c-0.7-1.3-1-2.7-1-4.4c0-2.5,0.7-4.5,2.1-6
			c1.4-1.6,3.2-2.3,5.5-2.3c2.2,0,3.9,0.8,5.2,2.3c1.3,1.5,1.9,3.5,1.9,6.1V302.6z M75.2,300.7h8.2c-0.1-1.3-0.5-2.3-1.2-3
			c-0.7-0.7-1.6-1-2.8-1c-1.2,0-2.1,0.3-2.8,1C75.9,298.4,75.5,299.4,75.2,300.7z"/>
		<path class="st6" d="M101,285.7h3.2v24.7h-6.9c-2.4,0-4.3-0.8-5.8-2.3c-1.4-1.5-2.2-3.6-2.2-6.1c0-2.4,0.8-4.4,2.3-5.9
			c1.5-1.5,3.4-2.3,5.8-2.3c1.1,0,2.3,0.2,3.5,0.7V285.7z M101,307.7v-10.3c-1-0.5-2-0.8-3.1-0.8c-1.6,0-2.9,0.5-3.8,1.6
			c-1,1.1-1.4,2.5-1.4,4.2c0,1.7,0.4,3,1.2,3.9c0.5,0.5,1,0.9,1.6,1.1c0.6,0.2,1.6,0.3,3,0.3H101z"/>
	</g>
</g>
</svg>
